<mxfile host="app.diagrams.net" modified="2022-03-30T17:58:16.047Z" agent="5.0 (Windows NT 10.0; Win64; x64) AppleWebKit/537.36 (KHTML, like Gecko) Chrome/99.0.4844.84 Safari/537.36" etag="YR0LbUTtzxpxOjf2QwFh" version="17.2.4" type="github">
  <diagram id="pxYi87dzXqwNqoQB3EMh" name="Page-1">
    <mxGraphModel dx="925" dy="536" grid="1" gridSize="10" guides="1" tooltips="1" connect="1" arrows="1" fold="1" page="1" pageScale="1" pageWidth="850" pageHeight="1100" math="0" shadow="0">
      <root>
        <mxCell id="0" />
        <mxCell id="1" parent="0" />
        <mxCell id="XU-mJ-ivhtag0VWZFGJD-1" value="&lt;h2&gt;Kafka&lt;/h2&gt;" style="rounded=0;whiteSpace=wrap;html=1;fontSize=26;fontFamily=Tahoma;fillColor=#e1d5e7;strokeColor=#9673a6;" vertex="1" parent="1">
          <mxGeometry x="220" y="150" width="430" height="190" as="geometry" />
        </mxCell>
        <mxCell id="XU-mJ-ivhtag0VWZFGJD-2" value="Architecture" style="rounded=1;whiteSpace=wrap;html=1;fontFamily=Tahoma;" vertex="1" parent="1">
          <mxGeometry x="230" y="80" width="120" height="60" as="geometry" />
        </mxCell>
        <mxCell id="XU-mJ-ivhtag0VWZFGJD-3" value="Integrations" style="rounded=1;whiteSpace=wrap;html=1;fontFamily=Tahoma;" vertex="1" parent="1">
          <mxGeometry x="360" y="80" width="120" height="60" as="geometry" />
        </mxCell>
        <mxCell id="XU-mJ-ivhtag0VWZFGJD-4" value="Security" style="rounded=1;whiteSpace=wrap;html=1;fontFamily=Tahoma;" vertex="1" parent="1">
          <mxGeometry x="90" y="150" width="120" height="60" as="geometry" />
        </mxCell>
        <mxCell id="XU-mJ-ivhtag0VWZFGJD-7" style="edgeStyle=orthogonalEdgeStyle;rounded=1;orthogonalLoop=1;jettySize=auto;html=1;fontFamily=Tahoma;endArrow=none;endFill=0;" edge="1" parent="1" source="XU-mJ-ivhtag0VWZFGJD-5" target="XU-mJ-ivhtag0VWZFGJD-6">
          <mxGeometry relative="1" as="geometry" />
        </mxCell>
        <mxCell id="XU-mJ-ivhtag0VWZFGJD-5" value="Administration" style="rounded=1;whiteSpace=wrap;html=1;fontFamily=Tahoma;" vertex="1" parent="1">
          <mxGeometry x="660" y="160" width="120" height="60" as="geometry" />
        </mxCell>
        <mxCell id="XU-mJ-ivhtag0VWZFGJD-6" value="&lt;ul&gt;&lt;li&gt;&lt;br&gt;&lt;/li&gt;&lt;/ul&gt;" style="rounded=1;whiteSpace=wrap;html=1;fontFamily=Tahoma;align=left;fontSize=11;fillColor=#f5f5f5;fontColor=#333333;strokeColor=#666666;" vertex="1" parent="1">
          <mxGeometry x="870" y="152.13" width="290" height="75.74" as="geometry" />
        </mxCell>
      </root>
    </mxGraphModel>
  </diagram>
</mxfile>
